# xmcd
#
# Track frame offsets:
#	150
#	11365
#	22850
#	37805
#	58945
#	75505
#	95120
#	110677
#	129652
#	141682
#	156202
#	169932
#	187585
#	207905
#	221750
#	238622
#	252667
#	268607
#
# Disc length: 3681
#
# Revision: 5
# Processed by: cddbd v1.5.1PL0 Copyright (c) Steve Scherf et al.
# Submitted via: audiograbber 1.82.01
# Normalized: r4:DSETVAR2
#
DISCID=000e5f12
DTITLE=Various Artist - Schlagerfieber CD1
DYEAR=1999
DGENRE=Blues
TTITLE0=Jürgen Drews - Ein Festival der Liebe
TTITLE1=Michael Holm - Mendocino
TTITLE2=Juliane Werding - Wenn du denkst du denkst dann denkst du nur du denkst
TTITLE3=Christian Andres - Es fährt ein Zug nach niergendwo
TTITLE4=Hoffmann and Hoffmann - Himbeereis zum Frühstück
TTITLE5=Rudi Carell - Wann wirds mal wieder richtig Sommer
TTITLE6=Howard Carpendale - Deine Spuren im Sand
TTITLE7=Marianne Rosenberg - Marleen
TTITLE8=Tony Holiday - Tanze Samba mit mir
TTITLE9=Cindy and Bert - Immer wieder Sonntag
TTITLE10=Ireen Sheer - Goobye Mama
TTITLE11=Paola - Blue Bayou
TTITLE12=Adam and Eve - Du gehst fort (Tu t'en vas)
TTITLE13=Johanna von Koczian - Das bißchen Haushalt....sagt mein Mann
TTITLE14=Chris Roberts - Du kannst nicht immer 17 sein
TTITLE15=Costa Cordalis - Anita
TTITLE16=Katja Ebstein - Wunder gibt es immer wieder
TTITLE17=Studio Orchester Heinz Gietz - Musik ist Trumpf
EXTD=
EXTT0=
EXTT1=
EXTT2=
EXTT3=
EXTT4=
EXTT5=
EXTT6=
EXTT7=
EXTT8=
EXTT9=
EXTT10=
EXTT11=
EXTT12=
EXTT13=
EXTT14=
EXTT15=
EXTT16=
EXTT17=
PLAYORDER=
